<?xml version="1.0" encoding="utf-8"?>
<!-- Generator: Adobe Illustrator 23.0.3, SVG Export Plug-In . SVG Version: 6.00 Build 0)  -->
<svg version="1.1" xmlns="http://www.w3.org/2000/svg" xmlns:xlink="http://www.w3.org/1999/xlink" x="0px" y="0px"
	 viewBox="0 0 768 1366" style="enable-background:new 0 0 768 1366;" xml:space="preserve">
<style type="text/css">
	.st0{fill:#F78C0B;}
	.st1{fill:#274429;}
	.st2{fill:url(#SVGID_1_);}
	.st3{fill:#FFFFFF;}
	.st4{font-family:'Impact';}
	.st5{font-size:100px;}
</style>
<g id="Layer_1">
	<rect x="0" y="1" class="st0" width="768" height="683"/>
	<rect x="0" y="684" class="st1" width="768" height="683"/>
	
		<linearGradient id="SVGID_1_" gradientUnits="userSpaceOnUse" x1="365.0026" y1="682.9973" x2="405.0028" y2="682.9973" gradientTransform="matrix(-3.464102e-07 1 -1 -3.464102e-07 1066.9974 298.9976)">
		<stop  offset="0" style="stop-color:#F78C0B"/>
		<stop  offset="0.1076" style="stop-color:#E9870D"/>
		<stop  offset="0.3097" style="stop-color:#C57B12"/>
		<stop  offset="0.5848" style="stop-color:#8B671B"/>
		<stop  offset="0.919" style="stop-color:#3B4B26"/>
		<stop  offset="1" style="stop-color:#274429"/>
	</linearGradient>
	<polygon class="st2" points="0,704 0,664 768,664 768,704 	"/>
</g>
<g id="Paka">
	<g>
		<polygon class="st3" points="452.2,991.71 409.56,973.18 449.77,949.08 453.69,900.97 487.91,933.29 532.97,922.09 513.91,966.17 
			537.84,1007.35 491.84,1002.27 461.56,1038.92 		"/>
		<path class="st3" d="M554.08,1173.1c-36.12,35.02-84.84,56.5-138.46,56.5c-111.39,0-201.7-92.68-201.7-207.03
			c0-97.45,65.61-179.18,153.97-201.16c-45.65,36.96-74.96,94.26-74.96,158.56c0,111.5,88.07,201.89,196.69,201.89
			c15.54,0,30.67-1.84,45.16-5.34C541.33,1175.69,547.76,1174.54,554.08,1173.1z"/>
	</g>
</g>
<g id="Indo">
	<g>
		<path class="st3" d="M390.72,115.82c-2.23-0.06-4.47-0.09-6.72-0.09c-2.25,0-4.49,0.04-6.72,0.09
			c-122.14,3.56-220.05,103.69-220.05,226.68c0,125.25,101.52,226.77,226.77,226.77c125.24,0,226.77-101.52,226.77-226.77
			C610.77,219.51,512.85,119.38,390.72,115.82z M585.08,356.69c-5.93,0.32-10.68,5.18-10.8,11.2c-0.08,5.18,3.29,9.61,8,11.08
			c-0.89,4.87-1.96,9.67-3.19,14.41c-0.28,1.1-0.58,2.22-0.89,3.31c-1.04,3.73-2.19,7.43-3.44,11.07c-1.16-0.43-2.41-0.66-3.71-0.69
			c-6.31-0.12-11.5,4.91-11.6,11.2c-0.08,4.71,2.69,8.78,6.72,10.61c-2.04,4.28-4.21,8.47-6.53,12.59
			c-0.55,0.96-1.09,1.92-1.66,2.87c-2.19,3.76-4.52,7.43-6.95,11.02c-1.92-1.61-4.4-2.6-7.1-2.64c-6.31-0.12-11.5,4.91-11.6,11.2
			c-0.07,3.95,1.87,7.47,4.88,9.56c-3,3.51-6.12,6.91-9.36,10.2c-0.81,0.84-1.64,1.66-2.47,2.47c-3.37,3.33-6.85,6.53-10.44,9.6
			c-1.9-3.51-5.57-5.93-9.85-6c-6.29-0.12-11.5,4.91-11.6,11.2c-0.06,3.33,1.32,6.34,3.54,8.46c-3.38,2.29-6.81,4.48-10.33,6.55
			c-0.97,0.58-1.94,1.15-2.93,1.72c-4.35,2.48-8.79,4.81-13.35,6.97c-0.91-5.29-5.48-9.35-11.03-9.45
			c-6.29-0.11-11.48,4.91-11.6,11.21c-0.05,2.47,0.7,4.78,2.01,6.66c-3.91,1.35-7.88,2.6-11.9,3.7c-1.08,0.31-2.16,0.59-3.25,0.87
			c-4.41,1.15-8.88,2.15-13.4,3c-0.06-6.16-5.03-11.19-11.21-11.29c-6.31-0.12-11.5,4.91-11.6,11.2c-0.02,1.03,0.09,2.04,0.34,2.99
			c-4.43,0.33-8.91,0.51-13.43,0.53c-0.45,0.01-0.91,0.01-1.36,0.01c-0.7,0-1.4,0-2.09-0.02c-4.28-0.04-8.53-0.2-12.74-0.52
			c0.21-0.83,0.33-1.69,0.34-2.58c0.11-6.31-4.91-11.5-11.21-11.6c-6.29-0.12-11.48,4.91-11.6,11.2v0.08
			c-4.42-0.83-8.79-1.79-13.11-2.92c-1.13-0.28-2.26-0.58-3.38-0.9c-4.25-1.16-8.45-2.48-12.59-3.92c0.68-1.42,1.07-3,1.09-4.67
			c0.11-6.29-4.91-11.5-11.21-11.6c-5.01-0.08-9.34,3.08-10.94,7.56c-3.7-1.79-7.34-3.69-10.9-5.69c-0.98-0.55-1.96-1.1-2.93-1.67
			c-4.03-2.35-7.98-4.82-11.83-7.44c1.61-1.92,2.6-4.39,2.64-7.09c0.11-6.31-4.91-11.5-11.21-11.6c-3.93-0.07-7.44,1.86-9.54,4.85
			c-3.21-2.75-6.34-5.61-9.36-8.57c-0.84-0.81-1.68-1.64-2.5-2.47c-3.2-3.22-6.29-6.55-9.27-9.99c2.75-2.04,4.55-5.27,4.61-8.96
			c0.11-6.29-4.91-11.5-11.21-11.6c-2.77-0.05-5.33,0.9-7.35,2.52c-2.33-3.4-4.57-6.87-6.7-10.43c-0.59-0.97-1.17-1.96-1.73-2.95
			c-2.31-3.97-4.47-8.04-6.49-12.18c3.95-1.74,6.73-5.65,6.81-10.24c0.11-6.29-4.92-11.48-11.21-11.6
			c-1.56-0.02-3.07,0.26-4.43,0.82c-1.47-4.12-2.8-8.32-3.99-12.56c-0.31-1.07-0.59-2.13-0.88-3.21c-1.3-4.93-2.43-9.94-3.35-15.02
			c4.2-1.61,7.22-5.67,7.3-10.44c0.09-5.91-4.33-10.86-10.09-11.52c-0.3-4.1-0.47-8.24-0.51-12.4c-0.02-0.75-0.02-1.48-0.02-2.23
			c0-0.45,0-0.89,0.01-1.34c0.02-4.5,0.2-8.97,0.52-13.4c5.68-0.65,10.09-5.48,10.09-11.32c0-4.85-3.02-8.98-7.28-10.64
			c0.82-4.46,1.78-8.85,2.9-13.2c0.27-1.13,0.56-2.24,0.88-3.34c1.13-4.15,2.38-8.25,3.77-12.28c0.73,0.15,1.49,0.24,2.28,0.24
			c6.31,0,11.41-5.11,11.41-11.41c0-4.02-2.09-7.55-5.23-9.58c1.9-4.01,3.93-7.94,6.09-11.8c0.53-0.96,1.07-1.92,1.64-2.87
			c2.09-3.61,4.29-7.16,6.6-10.63c1.71,1.01,3.7,1.59,5.83,1.59c6.29,0,11.4-5.11,11.4-11.4c0-3.29-1.39-6.26-3.61-8.33
			c3.12-3.71,6.36-7.3,9.75-10.77c0.79-0.83,1.61-1.65,2.43-2.45c3.28-3.27,6.67-6.41,10.17-9.45c2.06,2.04,4.89,3.29,8.01,3.29
			c6.31,0,11.41-5.11,11.41-11.41c0-2.07-0.56-4.03-1.53-5.71c3.45-2.38,6.99-4.65,10.6-6.81c0.96-0.57,1.92-1.14,2.89-1.69
			c3.9-2.25,7.89-4.39,11.96-6.38c1.97,3.44,5.68,5.76,9.92,5.76c6.29,0,11.4-5.11,11.4-11.41c0-1.09-0.15-2.15-0.44-3.14
			c4.33-1.54,8.71-2.95,13.17-4.18c1.04-0.31,2.1-0.59,3.16-0.87c4.66-1.23,9.4-2.3,14.19-3.19c1.2,5.01,5.7,8.75,11.08,8.75
			c6.31,0,11.41-5.11,11.41-11.41v-0.23c4.27-0.31,8.56-0.49,12.89-0.52c0.59-0.01,1.2-0.01,1.79-0.01c0.52,0,1.04,0,1.56,0.01
			c4.5,0.02,8.97,0.21,13.39,0.55c0.28,6.04,5.29,10.86,11.4,10.86c5.11,0,9.42-3.35,10.88-7.98c4.39,0.82,8.71,1.78,12.99,2.88
			c1.1,0.27,2.19,0.57,3.28,0.87c4.21,1.15,8.36,2.44,12.44,3.86c-0.24,0.94-0.37,1.91-0.37,2.92c0,6.29,5.11,11.4,11.4,11.4
			c4.23,0,7.93-2.3,9.9-5.72c3.92,1.87,7.76,3.88,11.53,5.99c0.95,0.53,1.9,1.07,2.83,1.62c3.71,2.16,7.34,4.43,10.89,6.81
			c-1.17,1.8-1.86,3.93-1.86,6.23c0,6.31,5.11,11.41,11.41,11.41c3.44,0,6.52-1.53,8.6-3.93c3.61,3.06,7.11,6.25,10.5,9.58
			c0.82,0.78,1.64,1.59,2.43,2.41c3.35,3.38,6.58,6.87,9.67,10.48c-2.16,2.07-3.5,4.99-3.5,8.23c0,6.29,5.11,11.4,11.4,11.4
			c2.16,0,4.17-0.6,5.9-1.64c2.29,3.37,4.48,6.8,6.57,10.31c0.58,0.95,1.14,1.91,1.68,2.87c2.31,4.03,4.49,8.14,6.53,12.35
			c-3.48,1.96-5.83,5.68-5.83,9.94c0,6.31,5.11,11.41,11.41,11.41c1.09,0,2.13-0.15,3.13-0.44c1.48,4.22,2.83,8.5,4.03,12.84
			c0.31,1.04,0.58,2.1,0.85,3.15c1.26,4.78,2.32,9.62,3.21,14.54c-4.93,1.26-8.59,5.74-8.59,11.07c0,6.29,5.1,11.39,11.39,11.4
			c0.3,4.16,0.45,8.36,0.47,12.59c0.01,0.44,0.01,0.88,0.01,1.32c0,0.73,0,1.47-0.02,2.2C585.52,348.72,585.36,352.73,585.08,356.69
			z"/>
		<path class="st3" d="M586.78,341.24v3.4l-1.23,0.06l-99,5.17h-9.53l-54.74-4.76c-0.14,1.99-0.43,3.93-0.85,5.82l54.15,9.6
			l13.76,3.69l89.75,29.17l1.59,0.51l-0.84,3.14l-1.64-0.34l-96.72-20.66l-9.23-2.47l-51.86-18.87c-0.56,1.67-1.23,3.29-2,4.85
			l49.33,23.05l12.3,7.11l79.63,51.76l0.58,0.38l-1.62,2.8l-0.62-0.31l-88.62-45.24l-8.24-4.76l-44.7-31.3
			c-1.15,1.79-2.43,3.48-3.84,5.06l42.17,35.52l10.12,10.12l62.98,69.95l1.53,1.71l-2.29,2.3l-1.71-1.54l-73.24-66.12l-6.78-6.79
			L409.8,370.9c-1.42,1.29-2.93,2.47-4.53,3.53l31.44,45.02l7.12,12.34l42.87,84.17l0.73,1.43l-2.81,1.61l-0.85-1.33l-53.84-83.09
			l-4.78-8.27l-23.27-49.87c-1.92,1.01-3.92,1.87-6.02,2.55l18.7,51.53l3.67,13.74l19.66,92.51l0.25,1.2l-3.12,0.84l-0.38-1.17
			l-30.57-94.28l-2.47-9.21l-9.56-54.14c-2.15,0.46-4.37,0.75-6.64,0.83l4.81,55.41v14.22l-2.32,44.49l-2.56,49.1l-0.11,2.1h-3.24
			l-0.11-2.11l-5.11-98.12v-9.53l0.01-0.14l4.82-55.47c-1.96-0.12-3.89-0.38-5.75-0.79l-9.73,54.96l-3.69,13.76l-28.88,88.99
			l-0.76,2.35l-3.13-0.84l0.51-2.41l20.46-95.95l2.47-9.23l19.11-52.6c-1.65-0.53-3.26-1.17-4.8-1.91l-23.32,49.97l-7.1,12.3
			l-51.35,79.1l-0.72,1.11l-2.8-1.62l0.59-1.16l44.91-88.07l4.75-8.24l31.63-45.24c-1.8-1.1-3.5-2.35-5.08-3.72l-35.82,42.58
			l-10.11,10.12l-69.58,62.71l-1.99,1.8l-2.29-2.29l1.78-1.98l65.8-72.97l6.78-6.78l42.64-35.86c-1.32-1.37-2.52-2.84-3.61-4.41
			l-45.24,31.62l-12.33,7.12l-83.96,42.82l-1.54,0.78l-1.61-2.81l1.42-0.92l82.89-53.77l8.27-4.78l50.03-23.37
			c-1.07-1.88-1.97-3.88-2.69-5.95l-51.54,18.74l-13.72,3.67l-92.55,19.69l-1.04,0.23l-0.84-3.12l1.01-0.32l94.33-30.63l9.2-2.47
			l54.07-9.56c-0.51-2.12-0.84-4.3-0.98-6.54l-54.67,4.73h-14.28l-94.3-4.91l-1.71-0.08v-3.4l1.69-0.08l98.54-5.14h9.53l55.17,4.8
			c0.08-1.98,0.32-3.92,0.7-5.81l-54.42-9.65l-13.76-3.69l-89.52-29.08l-1.83-0.59l0.84-3.14l1.86,0.39l96.5,20.61l9.23,2.47
			l52.03,18.93c0.52-1.68,1.15-3.32,1.88-4.89l-49.37-23.06l-12.3-7.11l-79.64-51.77l-0.57-0.37l1.62-2.8l0.58,0.3l88.65,45.25
			l8.24,4.76l44.66,31.26c1.1-1.83,2.33-3.56,3.72-5.17l-42-35.38l-10.12-10.12L239.48,202l-1.34-1.49l2.29-2.3l1.48,1.34
			l73.47,66.32l6.78,6.79l35.37,42.09c1.39-1.33,2.88-2.56,4.46-3.66l-31.17-44.65l-7.12-12.34l-43.12-84.65l-0.49-0.96l2.81-1.61
			l0.57,0.88l54.13,83.54l4.78,8.27l23.03,49.37c1.91-1.07,3.92-1.97,6.02-2.7l-18.47-50.88l-3.67-13.74l-19.8-93.23l-0.11-0.49
			l3.12-0.84l0.15,0.46l30.79,94.99l2.47,9.21l9.43,53.38c2.17-0.5,4.41-0.82,6.7-0.94l-4.74-54.54v-14.22l2.32-44.49l2.61-49.99
			l0.06-1.21h3.24l0.06,1.21l5.16,99.02v9.53l-0.01,0.14l-4.74,54.55c1.99,0.11,3.93,0.36,5.83,0.75l9.56-54l3.69-13.76l29.18-89.93
			l0.46-1.41l3.13,0.84l-0.31,1.43l-20.66,96.92l-2.47,9.23l-18.76,51.66c1.68,0.53,3.32,1.19,4.88,1.93l22.9-49.05l7.1-12.3
			l51.91-79.95l0.17-0.26l2.8,1.62l-0.13,0.26l-45.37,88.97l-4.75,8.24l-31.06,44.41c1.83,1.13,3.54,2.39,5.14,3.79l35.19-41.82
			l10.11-10.12l70.29-63.36l1.28-1.15l2.29,2.29l-1.14,1.27l-66.44,73.68l-6.78,6.78l-41.91,35.25c1.32,1.41,2.52,2.92,3.61,4.52
			l44.5-31.11l12.33-7.12l84.73-43.21l0.77-0.39l1.61,2.81l-0.7,0.45l-83.61,54.25l-8.27,4.78l-49.26,23
			c1.03,1.92,1.91,3.95,2.61,6.06l50.86-18.48l13.72-3.67l93.23-19.83l0.37-0.08l0.84,3.12l-0.36,0.12l-94.98,30.83l-9.2,2.47
			l-53.42,9.45c0.47,2.15,0.76,4.36,0.84,6.63l54.16-4.69h14.28l94.79,4.93L586.78,341.24z"/>
	</g>
</g>
<g id="Layer_4">
	<text transform="matrix(1.1 0 0 1 39.2024 723.2351)" class="st3 st4 st5">India-Pakistan</text>
</g>
</svg>
