<?xml version="1.0" encoding="utf-8"?>
<!-- Generator: Adobe Illustrator 26.0.1, SVG Export Plug-In . SVG Version: 6.00 Build 0)  -->
<svg version="1.1" xmlns="http://www.w3.org/2000/svg" xmlns:xlink="http://www.w3.org/1999/xlink" x="0px" y="0px"
	 viewBox="0 0 600 600" style="enable-background:new 0 0 600 600;" xml:space="preserve">
<style type="text/css">
	.st0{display:none;}
	.st1{display:inline;fill:#B76E11;stroke:#231F20;stroke-miterlimit:10;}
	.st2{display:inline;fill:#D5A47E;}
	.st3{display:inline;fill:#000095;}
	.st4{display:inline;fill:#FFFFFF;}
	.st5{display:inline;fill:#1F4123;stroke:#231F20;stroke-miterlimit:10;}
	.st6{display:inline;fill:#788D6E;}
	.st7{display:inline;fill:#592D01;stroke:#231F20;stroke-miterlimit:10;}
	.st8{display:inline;fill:#90542D;}
	.st9{display:inline;fill:#ED2128;stroke:#231F20;stroke-miterlimit:10;}
	.st10{display:inline;fill:#F6EB16;}
	.st11{fill:#6F7328;}
	.st12{fill:#A4A966;}
	.st13{fill:#FFFFFF;}
	.st14{display:inline;fill:#231F20;}
	.st15{fill:#231F20;}
	.st16{font-family:'IBMPlexSerif-Bold';}
	.st17{font-size:160.9983px;}
	.st18{letter-spacing:7.32;}
	.st19{display:none;fill:#FFFFFF;}
	.st20{font-size:163.8744px;}
	.st21{letter-spacing:7.45;}
	.st22{fill:#404041;}
	.st23{font-family:'CrimsonText-Bold';}
	.st24{font-size:102.2117px;}
	.st25{display:inline;fill:#404041;}
	.st26{fill:#4EC9F5;}
	.st27{font-family:'JetBrainsMono-ExtraBold';}
	.st28{font-size:164.8808px;}
	.st29{display:inline;fill:#4EC9F5;}
	.st30{fill:#EC1C24;}
	.st31{display:none;fill:#EC1C24;}
	.st32{display:inline;fill:#FFF100;}
	.st33{fill-rule:evenodd;clip-rule:evenodd;fill:#FFFFFF;}
	.st34{fill:#FFF100;stroke:#231F20;stroke-miterlimit:10;}
	.st35{fill:#FF7900;stroke:#231F20;stroke-miterlimit:10;}
	.st36{display:none;fill:#D6DE23;stroke:#231F20;stroke-miterlimit:10;}
	.st37{display:none;fill:#1B75BB;stroke:#231F20;stroke-miterlimit:10;}
	.st38{fill:#26A9E0;stroke:#231F20;stroke-miterlimit:10;}
	.st39{display:none;fill:#00A14B;stroke:#231F20;stroke-miterlimit:10;}
	.st40{display:none;fill:#FFFFFF;stroke:#231F20;stroke-miterlimit:10;}
	.st41{display:none;fill:#9966CC;stroke:#231F20;stroke-miterlimit:10;}
	.st42{display:none;fill:#FF7F50;stroke:#231F20;stroke-miterlimit:10;}
	.st43{display:none;fill:#3C6094;stroke:#231F20;stroke-miterlimit:10;}
	.st44{display:none;fill:#FF0090;stroke:#231F20;stroke-miterlimit:10;}
	.st45{display:none;fill:#EF60A3;stroke:#231F20;stroke-miterlimit:10;}
	.st46{display:none;fill:#BE1E2D;}
	.st47{fill:#231F20;stroke:#231F20;stroke-miterlimit:10;}
	.st48{font-size:105.1506px;}
	.st49{font-size:84.9149px;}
	.st50{font-family:'Impact';}
	.st51{font-size:90.1844px;}
	.st52{font-family:'Iosevka-Heavy';}
	.st53{font-size:49.5398px;}
</style>
<g id="India" class="st0">
	<rect class="st1" width="595.28" height="595.28"/>
	<rect y="212.63" class="st2" width="595.28" height="113.33"/>
</g>
<g id="ROC" class="st0">
	<rect id="Background" x="0" y="-0.02" class="st3" width="595.28" height="595.32"/>
	<rect x="1.72" y="212.62" class="st4" width="595.28" height="113.33"/>
</g>
<g id="Pakistan" class="st0">
	<rect x="1.72" y="0" class="st5" width="595.28" height="595.28"/>
	<rect x="1.72" y="212.62" class="st6" width="595.28" height="113.33"/>
</g>
<g id="Russia" class="st0">
	<rect x="1.72" y="0" class="st7" width="595.28" height="595.28"/>
	<rect x="1.72" y="212.62" class="st8" width="595.28" height="113.33"/>
</g>
<g id="PRC" class="st0">
	<rect x="0" y="0" class="st9" width="595.28" height="595.28"/>
	<rect x="0" y="212.63" class="st10" width="595.28" height="113.33"/>
</g>
<g id="USA">
	<rect x="0" class="st11" width="600" height="600"/>
	<rect x="0" y="212.5" class="st12" width="600" height="115"/>
</g>
<g id="Defense">
	<path class="st13" d="M366.92,408.27v76.88c0,0.63,0,1.24-0.02,1.86c-0.82,42.78-29.69,77.15-65.16,77.15
		c-35.51,0-64.37-34.37-65.19-77.15c-0.02-0.62-0.02-1.23-0.02-1.86v-76.88c1.76,6.85,15.67,12.19,32.59,12.19
		c16.93,0,30.86-5.34,32.6-12.2c1.74,6.86,15.66,12.2,32.59,12.2C351.23,420.46,365.16,415.13,366.92,408.27z"/>
	<g id="_x37__1_">
		<g id="_x37__00000004504279276845389030000014714695707247068082_" class="st0">
			<path class="st14" d="M286.05,542.97l-2.45-1.63c0.04-5.26,0.5-11.37,1.38-18.34c0.88-6.97,2.61-14.66,5.19-23.06
				c2.58-8.41,6.43-17.31,11.54-26.71c5.11-9.4,11.91-19.01,20.41-28.82l-31.42-0.25c-2.98-0.02-5.47,0.12-7.47,0.42
				c-2.01,0.3-3.63,1.02-4.87,2.13c-1.24,1.12-2.33,2.75-3.27,4.88c-0.94,2.14-1.99,5.03-3.15,8.67l-9.86-0.08l2.87-31.86
				l71.47,0.58l1.29,11.44c-5.81,7.47-10.83,14.88-15.04,22.26c-4.22,7.37-7.72,15.05-10.51,23.02c-2.79,7.98-4.86,16.52-6.21,25.63
				c-1.36,9.11-2.03,19.09-2.01,29.93L286.05,542.97z"/>
		</g>
	</g>
	
		<text id="_x35__00000022525113767485899820000006409120873374846120_" transform="matrix(0.9568 7.702160e-03 -8.050000e-03 1 253.6354 543.3422)" class="st15 st16 st17 st18">5</text>
	<g>
		<g class="st0">
			<path class="st14" d="M284.64,542.65l0.09-11.11l9.06-1.54c2.01-0.41,3.27-1.21,3.76-2.38c0.49-1.18,0.75-2.84,0.76-4.99
				l0.05-6.28l-39.09-0.32l-1.48-11.93l41.25-72.76l19.3-2.9l2.74,2.44l-0.56,70.19l12.72,0.1l-0.12,15.46l-12.72-0.1l-0.06,7.41
				c-0.02,2.04,0.32,3.54,1.01,4.52c0.69,0.97,1.91,1.63,3.66,1.96l6.03,1.18l-0.09,11.43L284.64,542.65z M272.52,500.69l25.97,0.21
				l0.37-45.56l-0.12-0.81L272.52,500.69z"/>
		</g>
	</g>
	<g id="_x33__3_">
		<g id="_x33__00000137847048580334455140000001841421201231818387_" class="st0">
			<path class="st14" d="M297.28,544.78c-5.34-0.04-10.03-0.72-14.08-2.04c-4.05-1.32-7.52-3.01-10.43-5.08
				c-2.91-2.06-5.31-4.2-7.19-6.42c-1.88-2.21-3.33-4.19-4.34-5.91l8.09-9.6c2.04,2.17,4.25,4.22,6.65,6.17
				c2.4,1.95,5.18,3.53,8.36,4.74c3.17,1.21,6.76,1.83,10.77,1.86c4.31,0.03,7.86-0.77,10.65-2.41c2.79-1.64,4.86-3.85,6.21-6.63
				c1.36-2.78,2.05-5.83,2.08-9.16c0.05-6.76-2.19-11.64-6.74-14.63c-4.55-2.99-11.39-4.46-20.53-4.43l1.33-11.58
				c5.75-0.6,10.41-1.93,13.97-3.99c3.56-2.06,6.2-4.72,7.92-7.99c1.72-3.26,2.6-6.88,2.63-10.85c0.04-5.04-1.31-9.11-4.06-12.19
				c-2.75-3.08-6.59-4.64-11.52-4.68c-2.77-0.02-5.42,0.49-7.95,1.55c-2.53,1.05-4.46,2.38-5.81,3.98c1.42,2.26,2.46,4.18,3.11,5.74
				c0.65,1.56,0.98,2.88,0.97,3.95c-0.01,1.29-0.43,2.63-1.27,4.01c-0.83,1.39-2.05,2.56-3.65,3.51c-1.6,0.95-3.58,1.42-5.94,1.4
				c-2.57-0.02-4.69-0.6-6.38-1.74s-2.91-2.68-3.66-4.62c-0.76-1.94-1.12-3.92-1.11-5.96c0.03-4.08,1.42-7.96,4.18-11.64
				c2.75-3.68,6.75-6.68,12.01-9c5.26-2.32,11.53-3.45,18.82-3.39c6.67,0.05,12.47,1.17,17.38,3.36c4.91,2.19,8.71,5.33,11.4,9.43
				c2.69,4.1,4.01,9.1,3.96,15c-0.04,4.51-0.99,8.53-2.87,12.05c-1.88,3.53-4.5,6.57-7.85,9.11c-3.36,2.55-7.3,4.5-11.83,5.86
				l-0.01,0.64c5.02,0.9,9.46,2.47,13.29,4.7c3.83,2.23,6.86,5.23,9.09,9.01c2.23,3.78,3.32,8.67,3.27,14.68
				c-0.04,5.26-1.08,9.95-3.12,14.06c-2.04,4.12-4.84,7.61-8.4,10.48c-3.57,2.87-7.69,5.04-12.38,6.5
				C307.63,544.11,302.62,544.82,297.28,544.78z"/>
		</g>
	</g>
	<g id="_x32__1_">
		<g id="_x32__00000065048721768888619880000006733860545826961287_" class="st0">
			<path class="st14" d="M268.24,542.47l-1.24-13.7c6.74-8.32,12.47-15.57,17.21-21.76c4.74-6.19,8.63-11.58,11.69-16.17
				c3.06-4.59,5.48-8.73,7.27-12.42c1.79-3.69,3.05-7.17,3.8-10.44c0.75-3.27,1.14-6.72,1.17-10.38c0.04-5.04-0.99-9-3.08-11.86
				c-2.1-2.86-4.99-4.31-8.69-4.34c-2.34-0.02-4.49,0.37-6.43,1.16c-1.95,0.79-3.55,1.77-4.82,2.94c0.89,1.62,1.58,3.02,2.06,4.2
				c0.49,1.19,0.86,2.26,1.12,3.23c0.26,0.97,0.39,1.93,0.38,2.9c-0.02,2.68-0.97,5.04-2.83,7.06c-1.87,2.03-4.51,3.02-7.93,3
				c-3.88-0.03-6.73-1.34-8.55-3.93c-1.83-2.59-2.73-5.76-2.69-9.52c0.04-4.4,1.46-8.49,4.29-12.28c2.82-3.79,6.75-6.81,11.77-9.08
				c5.02-2.27,10.82-3.38,17.4-3.32c6.58,0.05,12.2,1.36,16.87,3.92c4.67,2.56,8.24,6.13,10.73,10.71
				c2.49,4.58,3.71,9.99,3.66,16.21c-0.03,3.54-0.42,6.95-1.16,10.21c-0.75,3.27-2.04,6.67-3.87,10.19s-4.34,7.48-7.53,11.85
				c-3.19,4.38-7.26,9.34-12.22,14.88c-4.96,5.54-10.94,11.99-17.94,19.34l17.31,0.14c2.34,0.02,4.26-0.15,5.75-0.52
				c1.49-0.36,2.71-1.13,3.67-2.31c0.96-1.17,1.85-2.94,2.68-5.29c0.83-2.35,1.75-5.46,2.78-9.32l12.03,0.1l-2.99,35.08
				L268.24,542.47z"/>
		</g>
	</g>
</g>
<g id="Attack">
	<text id="_x37__2_" transform="matrix(0.94 7.567000e-03 -8.050000e-03 1 81.6242 538.9551)" class="st19 st16 st20 st21">7</text>
	<text id="_x36__2_" transform="matrix(0.94 7.567000e-03 -8.050000e-03 1 81.6242 538.9551)" class="st19 st16 st20 st21">6</text>
	<text transform="matrix(0.94 7.567000e-03 -8.050000e-03 1 81.6242 538.9551)" class="st19 st16 st20 st21">5</text>
	<text transform="matrix(0.94 7.567000e-03 -8.050000e-03 1 83.9864 541.3173)" class="st13 st16 st20 st21">4</text>
	<text id="_x33__2_" transform="matrix(0.94 7.567000e-03 -8.050000e-03 1 81.6242 538.9551)" class="st19 st16 st20 st21">3</text>
	<text id="_x32_" transform="matrix(0.94 7.567000e-03 -8.050000e-03 1 81.6242 538.9551)" class="st19 st16 st20 st21">2</text>
</g>
<g id="ER">
	<polygon class="st22" points="460,270 525,192 590,270 525,348 	"/>
	<g id="_x37__00000003815028864642670500000009871939060755219633_">
		<g id="_x37__00000058560212064432718710000003455734375893434769_">
			<path class="st13" d="M515.85,311.87l-1.48-1.02c0-2.66,0.26-6.12,0.8-10.38c0.53-4.26,1.71-9.15,3.53-14.67
				c1.82-5.52,4.59-11.46,8.3-17.84c3.71-6.37,8.76-12.93,15.12-19.68h-23.54c-2.43,0-4.42,0.12-5.97,0.36
				c-1.55,0.24-2.83,0.72-3.81,1.43c-0.99,0.72-1.86,1.74-2.62,3.07c-0.76,1.33-1.55,3.12-2.39,5.37h-5.91l2.05-19.32h51.29
				l0.91,6.54c-4.25,5.04-7.92,10-11.03,14.87c-3.11,4.87-5.67,9.88-7.68,15.02c-2.01,5.15-3.51,10.6-4.49,16.35
				c-0.99,5.76-1.48,12.01-1.48,18.76L515.85,311.87z"/>
		</g>
	</g>
	<text id="_x36_" transform="matrix(1.1125 0 0 1 484.7989 298.4647)" class="st19 st23 st24">6</text>
	<text id="_x35__2_" transform="matrix(1.1125 0 0 1 487.7466 298.4665)" class="st19 st23 st24">5</text>
	<text id="_x34_" transform="matrix(1.1125 0 0 1 480.7081 298.4666)" class="st19 st23 st24">4</text>
	<text id="_x33__1_" transform="matrix(1.1125 0 0 1 494.0762 298.4667)" class="st19 st23 st24">3</text>
</g>
<g id="Motorized" class="st0">
	<circle class="st25" cx="487.56" cy="487.56" r="83.53"/>
	<text id="_x35_" transform="matrix(0.8399 0 0 1 448.3298 547.701)" class="st26 st27 st28">5</text>
	<text id="_x36__3_" transform="matrix(0.8399 0 0 1 448.3298 547.701)" class="st26 st27 st28">6</text>
	<text id="_x37__4_" transform="matrix(0.8399 0 0 1 448.3298 547.701)" class="st29 st27 st28">7</text>
</g>
<g id="Mechanized_x5F_D">
	<path id="Dub" class="st13" d="M521.1,565.83h-73.7c-7.83,0-14.17-6.35-14.17-14.17V426.94c0-7.83,6.35-14.17,14.17-14.17h73.7
		c7.83,0,14.17,6.35,14.17,14.17v124.72C535.28,559.49,528.93,565.83,521.1,565.83z"/>
	<text id="_x38_" transform="matrix(0.8399 0 0 1 442.709 548.3931)" class="st30 st27 st28">8</text>
	<text id="_x37__3_" transform="matrix(0.8399 0 0 1 440.6308 546.9132)" class="st31 st27 st28">7</text>
</g>
<g id="Light" class="st0">
	<path id="Black_x5F_S" class="st14" d="M515.91,558.43h-79.37c-7.83,0-14.17-6.35-14.17-14.17V425.2c0-7.83,6.35-14.17,14.17-14.17
		h79.37c7.83,0,14.17,6.35,14.17,14.17v119.06C530.08,552.08,523.73,558.43,515.91,558.43z"/>
	<text id="_x34__S_1_" transform="matrix(0.8399 0 0 1 434.3442 544.7025)" class="st32 st27 st28">4</text>
</g>
<g id="Corps_Color">
	<path class="st15" d="M174.84,185h250.31c10.96,0,19.84,8.88,19.84,19.84v160.31c0,10.96-8.88,19.84-19.84,19.84H174.84
		c-10.96,0-19.84-8.88-19.84-19.84V204.84C155,193.88,163.88,185,174.84,185z"/>
	<path id="Yellow_00000181076646768992172720000006587089135148599426_" class="st34" d="M412.68,198.61H187.32
		c-4.7,0-8.5,3.81-8.5,8.5V353.2c0,4.7,3.81,8.5,8.5,8.5h224.35c5.25,0,9.51-4.26,9.51-9.51V207.11
		C421.18,202.41,417.37,198.61,412.68,198.61z"/>
	<path id="Orange_00000038397436569410281570000005348473842671616392_" class="st35" d="M423.31,199.37H176.69
		c-4.7,0-8.5,3.81-8.5,8.5v155.91c0,4.7,3.81,8.5,8.5,8.5H422.3c5.25,0,9.51-4.26,9.51-9.51v-154.9
		C431.81,203.18,428,199.37,423.31,199.37z"/>
	<path id="Greenish-Yellow" class="st36" d="M412.02,197.39H186.67c-4.7,0-8.5,3.81-8.5,8.5v146.09c0,4.7,3.81,8.5,8.5,8.5h224.35
		c5.25,0,9.51-4.26,9.51-9.51V205.9C420.53,201.2,416.72,197.39,412.02,197.39z"/>
	<path id="Blue_1_" class="st37" d="M412.03,197.4H186.68c-4.7,0-8.5,3.81-8.5,8.5V352c0,4.7,3.81,8.5,8.5,8.5h224.35
		c5.25,0,9.51-4.26,9.51-9.51V205.9C420.54,201.21,416.73,197.4,412.03,197.4z"/>
	<path id="Light_Blue_00000014604738867543214430000011880330949493960362_" class="st38" d="M424,197.5H176
		c-4.7,0-8.5,3.81-8.5,8.5V364c0,4.7,3.81,8.5,8.5,8.5h246.99c5.25,0,9.51-4.26,9.51-9.51V206C432.5,201.31,428.69,197.5,424,197.5z
		"/>
	<path id="Green" class="st39" d="M410.31,196.24H184.96c-4.7,0-8.5,3.81-8.5,8.5v146.09c0,4.7,3.81,8.5,8.5,8.5h224.35
		c5.25,0,9.51-4.26,9.51-9.51V204.75C418.82,200.05,415.01,196.24,410.31,196.24z"/>
	<path id="No_Corps" class="st40" d="M420.94,197.01H174.33c-4.7,0-8.5,3.81-8.5,8.5v155.91c0,4.7,3.81,8.5,8.5,8.5h245.61
		c5.25,0,9.51-4.26,9.51-9.51v-154.9C429.45,200.82,425.64,197.01,420.94,197.01z"/>
	<path id="Amethyst" class="st41" d="M410.31,196.24H184.96c-4.7,0-8.5,3.81-8.5,8.5v146.09c0,4.7,3.81,8.5,8.5,8.5h224.35
		c5.25,0,9.51-4.26,9.51-9.51V204.75C418.82,200.05,415.01,196.24,410.31,196.24z"/>
	<path id="Coral" class="st42" d="M420.94,197.01H174.33c-4.7,0-8.5,3.81-8.5,8.5v155.91c0,4.7,3.81,8.5,8.5,8.5h245.61
		c5.25,0,9.51-4.26,9.51-9.51v-154.9C429.45,200.82,425.64,197.01,420.94,197.01z"/>
	<path id="Cobalt" class="st43" d="M420.94,197.01H174.33c-4.7,0-8.5,3.81-8.5,8.5v155.91c0,4.7,3.81,8.5,8.5,8.5h245.61
		c5.25,0,9.51-4.26,9.51-9.51v-154.9C429.45,200.82,425.64,197.01,420.94,197.01z"/>
	<path id="Magenta" class="st44" d="M410.31,196.24H184.96c-4.7,0-8.5,3.81-8.5,8.5v146.09c0,4.7,3.81,8.5,8.5,8.5h224.35
		c5.25,0,9.51-4.26,9.51-9.51V204.75C418.82,200.05,415.01,196.24,410.31,196.24z"/>
	<path id="Pink" class="st45" d="M410.31,196.24H184.96c-4.7,0-8.5,3.81-8.5,8.5v146.09c0,4.7,3.81,8.5,8.5,8.5h224.35
		c5.25,0,9.51-4.26,9.51-9.51V204.75C418.82,200.05,415.01,196.24,410.31,196.24z"/>
	<path id="Red" class="st46" d="M420.94,197.01H174.33c-4.7,0-8.5,3.81-8.5,8.5v155.91c0,4.7,3.81,8.5,8.5,8.5h245.61
		c5.25,0,9.51-4.26,9.51-9.51v-154.9C429.45,200.82,425.64,197.01,420.94,197.01z"/>
</g>
<g id="Armor" class="st0">
	<g id="Combined_Arms">
		<path class="st14" d="M249.45,324.57c-12.53,0-22.68,10.15-22.68,22.68c0,12.53,10.15,22.68,22.68,22.68s22.68-10.15,22.68-22.68
			C272.13,334.72,261.97,324.57,249.45,324.57z M249.45,363.7c-9.09,0-16.46-7.37-16.46-16.46c0-9.09,7.37-16.46,16.46-16.46
			c9.09,0,16.45,7.37,16.45,16.46C265.9,356.34,258.53,363.7,249.45,363.7z"/>
		<path class="st14" d="M297.64,324.57c-12.53,0-22.68,10.15-22.68,22.68c0,12.53,10.15,22.68,22.68,22.68s22.68-10.15,22.68-22.68
			C320.31,334.72,310.16,324.57,297.64,324.57z M297.64,363.7c-9.09,0-16.46-7.37-16.46-16.46c0-9.09,7.37-16.46,16.46-16.46
			c9.09,0,16.45,7.37,16.45,16.46C314.09,356.34,306.72,363.7,297.64,363.7z"/>
		<path class="st14" d="M345.83,324.57c-12.53,0-22.68,10.15-22.68,22.68c0,12.53,10.15,22.68,22.68,22.68s22.68-10.15,22.68-22.68
			C368.5,334.72,358.35,324.57,345.83,324.57z M345.83,363.7c-9.09,0-16.46-7.37-16.46-16.46c0-9.09,7.37-16.46,16.46-16.46
			c9.09,0,16.45,7.37,16.45,16.46C362.28,356.34,354.91,363.7,345.83,363.7z"/>
	</g>
	<path id="Small_Armor" class="st15" d="M337.7,231.02h-80.12c-28.74,0-52.07,20.62-52.07,46.06v7.09
		c0,25.44,23.32,46.06,52.07,46.06h80.12c28.76,0,52.07-20.62,52.07-46.06v-7.09C389.76,251.65,366.46,231.02,337.7,231.02z
		 M379.08,283.55c0,20.95-20.6,37.93-46.03,37.93h-70.82c-25.42,0-46.04-16.98-46.04-37.93v-5.84c0-20.95,20.62-37.93,46.04-37.93
		h70.82c25.43,0,46.03,16.98,46.03,37.93V283.55z"/>
	<rect id="IFV" x="216.85" y="197.65" class="st47" width="8.5" height="164.41"/>
	<g id="Motorized_1_">
		<circle class="st14" cx="221.1" cy="277.8" r="19.11"/>
		<circle class="st14" cx="374.17" cy="277.8" r="19.11"/>
	</g>
</g>
<g id="Infantry">
	<g>
		
			<rect x="295" y="119.4" transform="matrix(0.5446 -0.8387 0.8387 0.5446 -102.4128 381.3791)" class="st15" width="10" height="331.19"/>
		
			<rect x="295" y="119.4" transform="matrix(-0.5446 -0.8387 0.8387 -0.5446 224.3706 691.8233)" class="st15" width="10" height="331.19"/>
	</g>
</g>
<g id="SBCT">
	<path class="st15" d="M251.81,327.32c-12.53,0-22.68,10.15-22.68,22.68s10.15,22.68,22.68,22.68c12.53,0,22.68-10.15,22.68-22.68
		S264.34,327.32,251.81,327.32z M251.81,366.46c-9.09,0-16.46-7.37-16.46-16.46c0-9.09,7.37-16.46,16.46-16.46
		c9.09,0,16.45,7.37,16.45,16.46C268.26,359.09,260.9,366.46,251.81,366.46z"/>
	<path class="st15" d="M300,327.32c-12.53,0-22.68,10.15-22.68,22.68s10.15,22.68,22.68,22.68s22.68-10.15,22.68-22.68
		S312.53,327.32,300,327.32z M300,366.46c-9.09,0-16.46-7.37-16.46-16.46c0-9.09,7.37-16.46,16.46-16.46
		c9.09,0,16.45,7.37,16.45,16.46C316.45,359.09,309.09,366.46,300,366.46z"/>
	<path class="st15" d="M348.19,327.32c-12.53,0-22.68,10.15-22.68,22.68s10.15,22.68,22.68,22.68c12.53,0,22.68-10.15,22.68-22.68
		S360.71,327.32,348.19,327.32z M348.19,366.46c-9.09,0-16.46-7.37-16.46-16.46c0-9.09,7.37-16.46,16.46-16.46
		c9.09,0,16.45,7.37,16.45,16.46C364.64,359.09,357.27,366.46,348.19,366.46z"/>
	<path id="Small_Armor_1_" class="st15" d="M340.06,230.39h-80.12c-28.74,0-52.07,20.62-52.07,46.06v7.09
		c0,25.44,23.32,46.06,52.07,46.06h80.12c28.76,0,52.07-20.62,52.07-46.06v-7.09C392.13,251.02,368.82,230.39,340.06,230.39z
		 M381.44,282.92c0,20.95-20.6,37.93-46.03,37.93h-70.82c-25.42,0-46.04-16.98-46.04-37.93v-5.84c0-20.95,20.62-37.93,46.04-37.93
		h70.82c25.43,0,46.03,16.98,46.03,37.93V282.92z"/>
	<rect id="Medium" x="203.5" y="198" class="st47" width="9" height="174"/>
</g>
<g id="Stacking">
	<circle class="st22" cx="82.5" cy="270" r="57.5"/>
	<text transform="matrix(1.074 0 0 1 65.2418 298.4702)" class="st19 st23 st48">1</text>
	<g>
		<g>
			<path class="st13" d="M59.28,288.05l27.52-33.68c1.25-1.51,2.21-3.05,2.9-4.65c0.68-1.59,1.02-3.07,1.02-4.44v-0.1
				c0-2.02-0.7-3.58-2.1-4.67c-1.4-1.09-3.38-1.64-5.96-1.64c-2.5,0-4.52,0.76-6.07,2.29c-1.54,1.52-2.48,3.69-2.81,6.49v0.05h-15.5
				v-0.05c0.33-4.65,1.53-8.66,3.61-12.01c2.08-3.35,4.88-5.91,8.41-7.68c3.53-1.76,7.61-2.64,12.24-2.64c5,0,9.27,0.76,12.82,2.28
				c3.55,1.52,6.25,3.74,8.11,6.65c1.86,2.91,2.79,6.42,2.79,10.53v0.05c0,3.39-0.63,6.75-1.9,10.09c-1.27,3.34-3.04,6.36-5.32,9.06
				L79.3,287.17h27.41v13.55H59.28V288.05z"/>
		</g>
	</g>
	<text id="_x33_" transform="matrix(1.074 0 0 1 59.3076 303.2133)" class="st19 st23 st48">3</text>
</g>
<g id="Formation">
	<text id="X" transform="matrix(1.102 0 0 1 265.9841 179.3363)" class="st13 st16 st49">X</text>
	<text id="XX" transform="matrix(1.102 0 0 1 229.6059 176.9741)" class="st19 st16 st49">XX</text>
	<text id="XXX" transform="matrix(1.102 0 0 1 195.5897 176.9741)" class="st19 st16 st49">XXX</text>
</g>
<g id="Unit_ID">
	<text transform="matrix(0.9975 0 0 1 29.5653 107.1957)" class="st13 st50 st51">1 SBCT</text>
	<text id="Word" transform="matrix(0.9975 0 0 1 27.2031 104.8335)" class="st19 st50 st51">5 Marine</text>
</g>
<g id="Start_Pos" class="st0">
	<path class="st13" d="M558.88,88.84H462.5c-7.83,0-14.17-6.35-14.17-14.17V46.32c0-7.83,6.35-14.17,14.17-14.17h96.38
		c7.83,0,14.17,6.35,14.17,14.17v28.35C573.05,82.49,566.71,88.84,558.88,88.84z"/>
	<text id="Number" transform="matrix(0.9727 0 0 1 462.6133 77.9549)" class="st22 st52 st53">3500</text>
	<text id="Letter" transform="matrix(0.9727 0 0 1 462.6133 77.9549)" class="st22 st52 st53">3500</text>
	<path class="st4" d="M530.08,93.54h-39.69c-7.83,0-14.17-6.35-14.17-14.17V45.35c0-7.83,6.35-14.17,14.17-14.17h39.69
		c7.83,0,14.17,6.35,14.17,14.17v34.02C544.25,87.2,537.91,93.54,530.08,93.54z"/>
	<text id="Geo" transform="matrix(0.9727 0 0 1 498.6445 81.2431)" class="st25 st52 st53">R</text>
</g>
</svg>
