<svg xmlns="http://www.w3.org/2000/svg" viewBox="0 0 595.28 595.28">
  <defs>
    <style>
      .stripe-USA {
        fill: #6f7328;
      }

      .main-color-USA {
        fill: #a4a966;
      }

      .cls-10, .cls-15, .cls-16, .cls-17, .cls-3, .cls-5, .cls-8 {
        fill: #fff;
      }

      .cls-4 {
        font-size: 161px;
        letter-spacing: 0.05em;
      }

      .cls-11, .cls-4, .cls-7 {
        fill: #231f20;
      }

      .cls-16, .cls-4, .cls-5 {
        font-family: IBMPlexSerif-Bold, IBM Plex Serif;
      }

      .cls-15, .cls-16, .cls-4, .cls-5, .cls-8 {
        font-weight: 700;
      }

      .cls-5 {
        font-size: 163.87px;
        letter-spacing: 0.05em;
      }

      .cls-6 {
        fill: #404041;
      }

      .cls-8 {
        font-size: 102.21px;
      }

      .cls-15, .cls-8 {
        font-family: CrimsonText-Bold, Crimson Text;
      }

      .mechanized-ma {
        font-size: 164.88px;
        fill: #ec1c24;
        font-family: JetBrainsMono-ExtraBold, JetBrains Mono;
        font-weight: 800;
      }

      .cls-10 {
        fill-rule: evenodd;
      }

      .cls-11, .cls-12, .cls-13, .cls-14 {
        stroke: #231f20;
        stroke-miterlimit: 10;
      }

      .cls-12 {
        fill: #fff100;
      }

      .cls-13 {
        fill: #ff7900;
      }

      .cls-14 {
        fill: #26a9e0;
      }

      .cls-15 {
        font-size: 105.15px;
      }

      .cls-16 {
        font-size: 84.91px;
      }

      .cls-17 {
        font-size: 90.18px;
        font-family: Impact;
      }
    </style>
  </defs>
  <g id="USA">
    <rect class="cls-1" width="595.28" height="595.28"/>
    <rect class="cls-2" y="212.6" width="595.28" height="113.39"/>
  </g>
  <g id="Defense">
    <path class="cls-3" d="M364.55,405.91v76.88c0,.63,0,1.24,0,1.86-.82,42.78-29.69,77.15-65.16,77.15S235,527.43,234.18,484.65c0-.62,0-1.23,0-1.86V405.91c1.76,6.85,15.67,12.19,32.59,12.19s30.86-5.35,32.61-12.21C301.09,412.75,315,418.1,332,418.1S362.8,412.76,364.55,405.91Z" transform="translate(0)"/>
    <text id="_5" data-name="5" class="cls-4" transform="translate(251.27 540.98) rotate(0.46) scale(0.96 1)">5</text>
  </g>
  <g id="Attack">
    <text class="cls-5" transform="translate(81.62 538.96) rotate(0.46) scale(0.94 1)">4</text>
  </g>
  <g id="ER">
    <polygon class="cls-6" points="453.54 269.29 518.74 191.34 583.94 269.29 518.74 347.24 453.54 269.29"/>
    <g id="_7" data-name="7">
      <path class="cls-3" d="M508.85,311.51l-1.82-1a86.62,86.62,0,0,1,.91-11.65,76.38,76.38,0,0,1,3.69-14.67,86.66,86.66,0,0,1,8.36-17,105.3,105.3,0,0,1,14.9-18.4h-23.2a42.1,42.1,0,0,0-5.52.31,7.21,7.21,0,0,0-3.58,1.38,8.88,8.88,0,0,0-2.39,3.12,51.76,51.76,0,0,0-2.27,5.52h-7.28l1.93-20.24h52.77l1,7.26a120.5,120.5,0,0,0-11,14.2A82.18,82.18,0,0,0,527.78,275a78.87,78.87,0,0,0-4.44,16.3,110.93,110.93,0,0,0-1.3,19Z" transform="translate(0)"/>
    </g>
  </g>
  <g id="USA_Back">
    <rect class="cls-2" width="595.28" height="595.28"/>
    <rect class="cls-1" y="212.6" width="595.28" height="113.39"/>
    <g id="Defense_copy" data-name="Defense copy">
      <path class="cls-3" d="M362.83,405.91v76.88c0,.63,0,1.24,0,1.86-.81,42.78-29.69,77.15-65.16,77.15s-64.37-34.37-65.19-77.15c0-.62,0-1.23,0-1.86V405.91c1.76,6.85,15.67,12.19,32.59,12.19s30.86-5.35,32.61-12.21c1.73,6.86,15.66,12.21,32.59,12.21S361.08,412.76,362.83,405.91Z" transform="translate(0)"/>
      <g id="_3" data-name="3">
        <path class="cls-7" d="M297.28,544.78a46.48,46.48,0,0,1-14.07-2,38.62,38.62,0,0,1-17.63-11.5,42.68,42.68,0,0,1-4.34-5.91l8.09-9.59a67.7,67.7,0,0,0,6.65,6.17,30.11,30.11,0,0,0,8.36,4.74,30.9,30.9,0,0,0,10.76,1.85,20.25,20.25,0,0,0,10.65-2.41,15.45,15.45,0,0,0,6.22-6.63A20.84,20.84,0,0,0,314,510.3q.09-10.14-6.73-14.62t-20.53-4.44l1.32-11.58q8.64-.9,14-4a19.93,19.93,0,0,0,7.92-8,23.37,23.37,0,0,0,2.63-10.84q.06-7.57-4.06-12.19T297.05,440a20,20,0,0,0-7.95,1.54,15,15,0,0,0-5.8,4,43.73,43.73,0,0,1,3.11,5.74,10.48,10.48,0,0,1,1,3.95,8,8,0,0,1-1.27,4,10.19,10.19,0,0,1-3.65,3.51,11.17,11.17,0,0,1-5.94,1.4,11.31,11.31,0,0,1-6.38-1.74,9.74,9.74,0,0,1-3.66-4.62,16.15,16.15,0,0,1-1.11-6,19.47,19.47,0,0,1,4.18-11.64,29.4,29.4,0,0,1,12-9q7.89-3.48,18.82-3.39a43.18,43.18,0,0,1,17.38,3.36,25.74,25.74,0,0,1,11.4,9.43q4,6.15,4,15a25.56,25.56,0,0,1-2.87,12.05,27.62,27.62,0,0,1-7.85,9.12,36.9,36.9,0,0,1-11.83,5.86v.64a40.33,40.33,0,0,1,13.28,4.7,24.89,24.89,0,0,1,9.1,9q3.33,5.67,3.27,14.68a32,32,0,0,1-3.12,14.06,30.93,30.93,0,0,1-8.4,10.48,37.44,37.44,0,0,1-12.38,6.5A49.07,49.07,0,0,1,297.28,544.78Z" transform="translate(0)"/>
      </g>
    </g>
    <g id="Attack_copy" data-name="Attack copy">
      <text id="_3-2" data-name="3" class="cls-5" transform="translate(81.62 538.96) rotate(0.46) scale(0.94 1)">3</text>
    </g>
    <g id="ER_copy" data-name="ER copy">
      <polygon class="cls-6" points="453.54 269.29 518.74 191.34 583.94 269.29 518.74 347.24 453.54 269.29"/>
      <text id="_6" data-name="6" class="cls-8" transform="translate(493.2 298.46) scale(1.11 1)">6</text>
    </g>
  </g>
  <g id="Mechanized_D">
    <rect id="Dub" class="cls-3" x="430.87" y="410.4" width="102.05" height="153.07" rx="14.17"/>
    <text id="_8" data-name="8" class="cls-9" transform="translate(440.63 546.91) scale(0.84 1)">8</text>
  </g>
  <g id="Corps_Color" data-name="Corps Color">
    <g>
      <path class="cls-3" d="M432.79,67.77l15.69,5.09a54.33,54.33,0,0,1,46.87-34.13V22.24A70.86,70.86,0,0,0,432.79,67.77Z" transform="translate(0)"/>
      <path class="cls-3" d="M454.41,148.16l9.76-13.38a53.91,53.91,0,0,1-17.86-55.17l-15.72-5.1a70.23,70.23,0,0,0,23.82,73.65Z" transform="translate(0)"/>
      <path class="cls-3" d="M537.58,152.34,527.89,139a54,54,0,0,1-57.95,0l-9.8,13.42a70.55,70.55,0,0,0,77.44,0Z" transform="translate(0)"/>
      <path class="cls-3" d="M567.21,74.48l-15.73,5.13a53.77,53.77,0,0,1-17.88,55.15l9.71,13.41a70.26,70.26,0,0,0,23.9-73.69Z" transform="translate(0)"/>
      <path class="cls-3" d="M502.44,22.18v16.6a54.34,54.34,0,0,1,46.85,34.09L565,67.73A70.89,70.89,0,0,0,502.44,22.18Z" transform="translate(0)"/>
      <path class="cls-10" d="M499,38.85l12.13,37.34h39.26L518.65,99.27l12.13,37.34L499,113.53l-31.77,23.08,12.13-37.34L447.62,76.19h39.26Z" transform="translate(0)"/>
    </g>
    <rect class="cls-11" x="151.65" y="182.83" width="291.97" height="201.26" rx="19.84"/>
    <path id="Yellow" class="cls-12" d="M185,196.24H410.31a8.5,8.5,0,0,1,8.5,8.5V349.84a9.51,9.51,0,0,1-9.51,9.51H185a8.5,8.5,0,0,1-8.5-8.5V204.75A8.5,8.5,0,0,1,185,196.24Z"/>
    <path id="Orange" class="cls-13" d="M174.33,197H420.94a8.5,8.5,0,0,1,8.5,8.5v154.9a9.51,9.51,0,0,1-9.51,9.51H174.33a8.5,8.5,0,0,1-8.5-8.5V205.51A8.5,8.5,0,0,1,174.33,197Z"/>
    <path id="Light_Blue" data-name="Light Blue" class="cls-14" d="M174.33,197H420.94a8.5,8.5,0,0,1,8.5,8.5v154.9a9.51,9.51,0,0,1-9.51,9.51H174.33a8.5,8.5,0,0,1-8.5-8.5V205.51A8.5,8.5,0,0,1,174.33,197Z"/>
  </g>
  <g id="SBCT">
    <path class="cls-7" d="M249.45,324.57a22.68,22.68,0,1,0,22.68,22.67A22.67,22.67,0,0,0,249.45,324.57Zm0,39.13a16.46,16.46,0,1,1,16.45-16.46A16.45,16.45,0,0,1,249.45,363.7Z" transform="translate(0)"/>
    <path class="cls-7" d="M297.64,324.57a22.68,22.68,0,1,0,22.67,22.67A22.67,22.67,0,0,0,297.64,324.57Zm0,39.13a16.46,16.46,0,1,1,16.45-16.46A16.45,16.45,0,0,1,297.64,363.7Z" transform="translate(0)"/>
    <path class="cls-7" d="M345.83,324.57a22.68,22.68,0,1,0,22.67,22.67A22.67,22.67,0,0,0,345.83,324.57Zm0,39.13a16.46,16.46,0,1,1,16.45-16.46A16.45,16.45,0,0,1,345.83,363.7Z" transform="translate(0)"/>
    <path id="Small_Armor" data-name="Small Armor" class="cls-7" d="M337.7,228.19H257.58c-28.74,0-52.07,20.62-52.07,46.06v7.09c0,25.44,23.33,46.06,52.07,46.06H337.7c28.76,0,52.06-20.62,52.06-46.06v-7.09C389.76,248.81,366.46,228.19,337.7,228.19Zm41.38,52.52c0,21-20.6,37.94-46,37.94H262.23c-25.41,0-46-17-46-37.94v-5.83c0-21,20.63-37.94,46-37.94h70.82c25.43,0,46,17,46,37.94Z" transform="translate(0)"/>
    <rect id="Medium" class="cls-11" x="202.68" y="197.01" width="8.5" height="172.91"/>
    <rect class="cls-7" x="140.73" y="279.21" width="313.81" height="8.5" transform="translate(200.91 -116.01) rotate(32.79)"/>
    <rect class="cls-7" x="140.73" y="279.21" width="313.81" height="8.5" transform="translate(-106.37 207.84) rotate(-33)"/>
  </g>
  <g id="Stacking">
    <circle class="cls-6" cx="84.62" cy="269.29" r="56.67"/>
    <text class="cls-15" transform="translate(59.44 298.47) scale(1.07 1)">2</text>
  </g>
  <g id="Formation">
    <text id="X" class="cls-16" transform="translate(263.62 176.97) scale(1.1 1)">X</text>
  </g>
  <g id="Unit_ID" data-name="Unit ID">
    <text class="cls-17" transform="translate(27.2 104.83)">1 SBCT</text>
  </g>
</svg>
