<?xml version="1.0" encoding="utf-8"?>
<!-- Generator: Adobe Illustrator 26.0.1, SVG Export Plug-In . SVG Version: 6.00 Build 0)  -->
<svg version="1.1" id="Layer_1" xmlns="http://www.w3.org/2000/svg" xmlns:xlink="http://www.w3.org/1999/xlink" x="0px" y="0px"
	 viewBox="0 0 768 1366" style="enable-background:new 0 0 768 1366;" xml:space="preserve">
<style type="text/css">
	.st0{display:none;fill:url(#SVGID_1_);}
	.st1{display:none;}
	.st2{display:inline;fill:#274429;}
	.st3{display:inline;}
	.st4{fill:#FFFFFF;}
	.st5{fill:#EA292B;}
	.st6{fill:#FFFF00;}
	.st7{fill:#000095;}
	.st8{display:none;fill:#FFFFFF;enable-background:new    ;}
	.st9{font-family:'Impact';}
	.st10{font-size:110px;}
</style>
<g id="Layer_1_00000067202722686947768040000013803400189167520678_">
	
		<linearGradient id="SVGID_1_" gradientUnits="userSpaceOnUse" x1="364.0025" y1="508.5538" x2="404.0028" y2="508.5538" gradientTransform="matrix(-3.464102e-07 1 1 3.464102e-07 -124.5537 299.9972)">
		<stop  offset="0" style="stop-color:#F78C0B"/>
		<stop  offset="0.1076" style="stop-color:#E9870D"/>
		<stop  offset="0.3097" style="stop-color:#C57B12"/>
		<stop  offset="0.5848" style="stop-color:#8B671B"/>
		<stop  offset="0.919" style="stop-color:#3B4B26"/>
		<stop  offset="1" style="stop-color:#274429"/>
	</linearGradient>
	<polygon class="st0" points="0,704 0,664 768,664 768,704 	"/>
</g>
<g id="Paka" class="st1">
	<rect y="684" class="st2" width="768" height="683"/>
	<g class="st3">
		<polygon class="st4" points="452.2,991.7 409.6,973.2 449.8,949.1 453.7,901 487.9,933.3 533,922.1 513.9,966.2 537.8,1007.4 
			491.8,1002.3 461.6,1038.9 		"/>
		<path class="st4" d="M554.1,1173.1c-36.1,35-84.8,56.5-138.5,56.5c-111.4,0-201.7-92.7-201.7-207c0-97.5,65.6-179.2,154-201.2
			c-45.6,37-75,94.3-75,158.6c0,111.5,88.1,201.9,196.7,201.9c15.5,0,30.7-1.8,45.2-5.3C541.3,1175.7,547.8,1174.5,554.1,1173.1z"/>
	</g>
</g>
<g id="China">
	<rect y="684" class="st5" width="768" height="683"/>
	<polygon class="st6" points="186.8,894.2 209.2,952.8 160.1,911.6 157.9,913.2 109.5,953.7 131.6,895.9 77.1,866.8 141.8,866.3 
		144.1,866.3 160.4,806.4 175.6,866.3 238.1,866.8 	"/>
	<polygon class="st6" points="310.9,791.5 316.5,806.1 304.2,795.9 303.7,796.2 291.6,806.4 297.1,791.9 283.5,784.7 299.6,784.5 
		300.2,784.5 304.3,769.5 308.1,784.5 323.7,784.7 	"/>
	<polygon class="st6" points="310.9,975.6 316.5,990.3 304.2,980 303.7,980.4 291.6,990.5 297.1,976 283.5,968.8 299.6,968.6 
		300.2,968.6 304.3,953.7 308.1,968.6 323.7,968.8 	"/>
	<polygon class="st6" points="372.9,929.6 378.5,944.3 366.2,934 365.7,934.4 353.6,944.5 359.1,930 345.5,922.8 361.6,922.6 
		362.2,922.6 366.3,907.7 370.1,922.6 385.7,922.8 	"/>
	<polygon class="st6" points="372.9,840.6 378.5,855.3 366.2,845 365.7,845.4 353.6,855.5 359.1,841 345.5,833.8 361.6,833.6 
		362.2,833.6 366.3,818.7 370.1,833.6 385.7,833.8 	"/>
</g>
<g id="Indo" class="st1">
	<g class="st3">
		<path class="st4" d="M390.7,115.8c-2.2-0.1-4.5-0.1-6.7-0.1s-4.5,0-6.7,0.1c-122.1,3.6-220.1,103.7-220.1,226.7
			c0,125.2,101.5,226.8,226.8,226.8c125.2,0,226.8-101.5,226.8-226.8C610.8,219.5,512.8,119.4,390.7,115.8z M585.1,356.7
			c-5.9,0.3-10.7,5.2-10.8,11.2c-0.1,5.2,3.3,9.6,8,11.1c-0.9,4.9-2,9.7-3.2,14.4c-0.3,1.1-0.6,2.2-0.9,3.3c-1,3.7-2.2,7.4-3.4,11.1
			c-1.2-0.4-2.4-0.7-3.7-0.7c-6.3-0.1-11.5,4.9-11.6,11.2c-0.1,4.7,2.7,8.8,6.7,10.6c-2,4.3-4.2,8.5-6.5,12.6
			c-0.5,1-1.1,1.9-1.7,2.9c-2.2,3.8-4.5,7.4-7,11c-1.9-1.6-4.4-2.6-7.1-2.6c-6.3-0.1-11.5,4.9-11.6,11.2c-0.1,4,1.9,7.5,4.9,9.6
			c-3,3.5-6.1,6.9-9.4,10.2c-0.8,0.8-1.6,1.7-2.5,2.5c-3.4,3.3-6.8,6.5-10.4,9.6c-1.9-3.5-5.6-5.9-9.9-6
			c-6.3-0.1-11.5,4.9-11.6,11.2c-0.1,3.3,1.3,6.3,3.5,8.5c-3.4,2.3-6.8,4.5-10.3,6.6c-1,0.6-1.9,1.2-2.9,1.7
			c-4.4,2.5-8.8,4.8-13.4,7c-0.9-5.3-5.5-9.3-11-9.5c-6.3-0.1-11.5,4.9-11.6,11.2c0,2.5,0.7,4.8,2,6.7c-3.9,1.3-7.9,2.6-11.9,3.7
			c-1.1,0.3-2.2,0.6-3.2,0.9c-4.4,1.2-8.9,2.2-13.4,3c-0.1-6.2-5-11.2-11.2-11.3c-6.3-0.1-11.5,4.9-11.6,11.2c0,1,0.1,2,0.3,3
			c-4.4,0.3-8.9,0.5-13.4,0.5c-0.5,0-0.9,0-1.4,0c-0.7,0-1.4,0-2.1,0c-4.3,0-8.5-0.2-12.7-0.5c0.2-0.8,0.3-1.7,0.3-2.6
			c0.1-6.3-4.9-11.5-11.2-11.6c-6.3-0.1-11.5,4.9-11.6,11.2v0.1c-4.4-0.8-8.8-1.8-13.1-2.9c-1.1-0.3-2.3-0.6-3.4-0.9
			c-4.2-1.2-8.5-2.5-12.6-3.9c0.7-1.4,1.1-3,1.1-4.7c0.1-6.3-4.9-11.5-11.2-11.6c-5-0.1-9.3,3.1-10.9,7.6c-3.7-1.8-7.3-3.7-10.9-5.7
			c-1-0.5-2-1.1-2.9-1.7c-4-2.3-8-4.8-11.8-7.4c1.6-1.9,2.6-4.4,2.6-7.1c0.1-6.3-4.9-11.5-11.2-11.6c-3.9-0.1-7.4,1.9-9.5,4.9
			c-3.2-2.8-6.3-5.6-9.4-8.6c-0.8-0.8-1.7-1.6-2.5-2.5c-3.2-3.2-6.3-6.5-9.3-10c2.8-2,4.6-5.3,4.6-9c0.1-6.3-4.9-11.5-11.2-11.6
			c-2.8,0-5.3,0.9-7.4,2.5c-2.3-3.4-4.6-6.9-6.7-10.4c-0.6-1-1.2-2-1.7-3c-2.3-4-4.5-8-6.5-12.2c3.9-1.7,6.7-5.6,6.8-10.2
			c0.1-6.3-4.9-11.5-11.2-11.6c-1.6,0-3.1,0.3-4.4,0.8c-1.5-4.1-2.8-8.3-4-12.6c-0.3-1.1-0.6-2.1-0.9-3.2c-1.3-4.9-2.4-9.9-3.4-15
			c4.2-1.6,7.2-5.7,7.3-10.4c0.1-5.9-4.3-10.9-10.1-11.5c-0.3-4.1-0.5-8.2-0.5-12.4c0-0.8,0-1.5,0-2.2c0-0.5,0-0.9,0-1.3
			c0-4.5,0.2-9,0.5-13.4c5.7-0.6,10.1-5.5,10.1-11.3c0-4.9-3-9-7.3-10.6c0.8-4.5,1.8-8.9,2.9-13.2c0.3-1.1,0.6-2.2,0.9-3.3
			c1.1-4.1,2.4-8.2,3.8-12.3c0.7,0.1,1.5,0.2,2.3,0.2c6.3,0,11.4-5.1,11.4-11.4c0-4-2.1-7.5-5.2-9.6c1.9-4,3.9-7.9,6.1-11.8
			c0.5-1,1.1-1.9,1.6-2.9c2.1-3.6,4.3-7.2,6.6-10.6c1.7,1,3.7,1.6,5.8,1.6c6.3,0,11.4-5.1,11.4-11.4c0-3.3-1.4-6.3-3.6-8.3
			c3.1-3.7,6.4-7.3,9.8-10.8c0.8-0.8,1.6-1.6,2.4-2.4c3.3-3.3,6.7-6.4,10.2-9.4c2.1,2,4.9,3.3,8,3.3c6.3,0,11.4-5.1,11.4-11.4
			c0-2.1-0.6-4-1.5-5.7c3.5-2.4,7-4.6,10.6-6.8c1-0.6,1.9-1.1,2.9-1.7c3.9-2.2,7.9-4.4,12-6.4c2,3.4,5.7,5.8,9.9,5.8
			c6.3,0,11.4-5.1,11.4-11.4c0-1.1-0.1-2.1-0.4-3.1c4.3-1.5,8.7-2.9,13.2-4.2c1-0.3,2.1-0.6,3.2-0.9c4.7-1.2,9.4-2.3,14.2-3.2
			c1.2,5,5.7,8.8,11.1,8.8c6.3,0,11.4-5.1,11.4-11.4v-0.2c4.3-0.3,8.6-0.5,12.9-0.5c0.6,0,1.2,0,1.8,0c0.5,0,1,0,1.6,0
			c4.5,0,9,0.2,13.4,0.6c0.3,6,5.3,10.9,11.4,10.9c5.1,0,9.4-3.4,10.9-8c4.4,0.8,8.7,1.8,13,2.9c1.1,0.3,2.2,0.6,3.3,0.9
			c4.2,1.1,8.4,2.4,12.4,3.9c-0.2,0.9-0.4,1.9-0.4,2.9c0,6.3,5.1,11.4,11.4,11.4c4.2,0,7.9-2.3,9.9-5.7c3.9,1.9,7.8,3.9,11.5,6
			c1,0.5,1.9,1.1,2.8,1.6c3.7,2.2,7.3,4.4,10.9,6.8c-1.2,1.8-1.9,3.9-1.9,6.2c0,6.3,5.1,11.4,11.4,11.4c3.4,0,6.5-1.5,8.6-3.9
			c3.6,3.1,7.1,6.2,10.5,9.6c0.8,0.8,1.6,1.6,2.4,2.4c3.3,3.4,6.6,6.9,9.7,10.5c-2.2,2.1-3.5,5-3.5,8.2c0,6.3,5.1,11.4,11.4,11.4
			c2.2,0,4.2-0.6,5.9-1.6c2.3,3.4,4.5,6.8,6.6,10.3c0.6,0.9,1.1,1.9,1.7,2.9c2.3,4,4.5,8.1,6.5,12.4c-3.5,2-5.8,5.7-5.8,9.9
			c0,6.3,5.1,11.4,11.4,11.4c1.1,0,2.1-0.1,3.1-0.4c1.5,4.2,2.8,8.5,4,12.8c0.3,1,0.6,2.1,0.8,3.1c1.3,4.8,2.3,9.6,3.2,14.5
			c-4.9,1.3-8.6,5.7-8.6,11.1c0,6.3,5.1,11.4,11.4,11.4c0.3,4.2,0.5,8.4,0.5,12.6c0,0.4,0,0.9,0,1.3c0,0.7,0,1.5,0,2.2
			C585.5,348.7,585.4,352.7,585.1,356.7z"/>
		<path class="st4" d="M586.8,341.2v3.4l-1.2,0.1l-99,5.2H477l-54.7-4.8c-0.1,2-0.4,3.9-0.9,5.8l54.1,9.6l13.8,3.7l89.8,29.2
			l1.6,0.5l-0.8,3.1l-1.6-0.3L481.5,376l-9.2-2.5l-51.9-18.9c-0.6,1.7-1.2,3.3-2,4.9l49.3,23l12.3,7.1l79.6,51.8l0.6,0.4l-1.6,2.8
			l-0.6-0.3l-88.6-45.2l-8.2-4.8L416.4,363c-1.1,1.8-2.4,3.5-3.8,5.1l42.2,35.5l10.1,10.1l63,69.9l1.5,1.7l-2.3,2.3l-1.7-1.5
			L452.2,420l-6.8-6.8l-35.6-42.3c-1.4,1.3-2.9,2.5-4.5,3.5l31.4,45l7.1,12.3l42.9,84.2l0.7,1.4l-2.8,1.6l-0.9-1.3l-53.8-83.1
			l-4.8-8.3l-23.3-49.9c-1.9,1-3.9,1.9-6,2.5l18.7,51.5l3.7,13.7l19.7,92.5l0.2,1.2l-3.1,0.8l-0.4-1.2l-30.6-94.3l-2.5-9.2L392,380
			c-2.1,0.5-4.4,0.8-6.6,0.8l4.8,55.4v14.2l-2.3,44.5l-2.6,49.1l-0.1,2.1H382l-0.1-2.1l-5.1-98.1v-9.5l0-0.1l4.8-55.5
			c-2-0.1-3.9-0.4-5.8-0.8l-9.7,55l-3.7,13.8l-28.9,89l-0.8,2.3l-3.1-0.8l0.5-2.4l20.5-96l2.5-9.2l19.1-52.6
			c-1.6-0.5-3.3-1.2-4.8-1.9l-23.3,50l-7.1,12.3l-51.4,79.1l-0.7,1.1l-2.8-1.6l0.6-1.2l44.9-88.1l4.8-8.2l31.6-45.2
			c-1.8-1.1-3.5-2.4-5.1-3.7l-35.8,42.6L313,424.2L243.4,487l-2,1.8l-2.3-2.3l1.8-2l65.8-73l6.8-6.8l42.6-35.9
			c-1.3-1.4-2.5-2.8-3.6-4.4l-45.2,31.6l-12.3,7.1L211,446l-1.5,0.8l-1.6-2.8l1.4-0.9l82.9-53.8l8.3-4.8l50-23.4
			c-1.1-1.9-2-3.9-2.7-6l-51.5,18.7l-13.7,3.7l-92.6,19.7l-1,0.2l-0.8-3.1l1-0.3l94.3-30.6l9.2-2.5l54.1-9.6c-0.5-2.1-0.8-4.3-1-6.5
			l-54.7,4.7h-14.3l-94.3-4.9l-1.7-0.1v-3.4l1.7-0.1L281,336h9.5l55.2,4.8c0.1-2,0.3-3.9,0.7-5.8l-54.4-9.6l-13.8-3.7l-89.5-29.1
			l-1.8-0.6l0.8-3.1l1.9,0.4l96.5,20.6l9.2,2.5l52,18.9c0.5-1.7,1.1-3.3,1.9-4.9l-49.4-23.1l-12.3-7.1l-79.6-51.8l-0.6-0.4l1.6-2.8
			l0.6,0.3l88.6,45.3l8.2,4.8l44.7,31.3c1.1-1.8,2.3-3.6,3.7-5.2l-42-35.4l-10.1-10.1L239.5,202l-1.3-1.5l2.3-2.3l1.5,1.3l73.5,66.3
			l6.8,6.8l35.4,42.1c1.4-1.3,2.9-2.6,4.5-3.7l-31.2-44.6l-7.1-12.3l-43.1-84.6l-0.5-1l2.8-1.6l0.6,0.9l54.1,83.5l4.8,8.3l23,49.4
			c1.9-1.1,3.9-2,6-2.7L353,255.4l-3.7-13.7l-19.8-93.2l-0.1-0.5l3.1-0.8l0.1,0.5l30.8,95l2.5,9.2l9.4,53.4c2.2-0.5,4.4-0.8,6.7-0.9
			l-4.7-54.5v-14.2l2.3-44.5l2.6-50l0.1-1.2h3.2l0.1,1.2l5.2,99v9.5l0,0.1l-4.7,54.6c2,0.1,3.9,0.4,5.8,0.8l9.6-54l3.7-13.8
			l29.2-89.9l0.5-1.4l3.1,0.8l-0.3,1.4L416.9,245l-2.5,9.2l-18.8,51.7c1.7,0.5,3.3,1.2,4.9,1.9l22.9-49l7.1-12.3l51.9-79.9l0.2-0.3
			l2.8,1.6l-0.1,0.3l-45.4,89l-4.8,8.2l-31.1,44.4c1.8,1.1,3.5,2.4,5.1,3.8l35.2-41.8l10.1-10.1l70.3-63.4l1.3-1.1l2.3,2.3l-1.1,1.3
			l-66.4,73.7l-6.8,6.8l-41.9,35.2c1.3,1.4,2.5,2.9,3.6,4.5l44.5-31.1l12.3-7.1l84.7-43.2l0.8-0.4l1.6,2.8l-0.7,0.4l-83.6,54.2
			l-8.3,4.8l-49.3,23c1,1.9,1.9,4,2.6,6.1l50.9-18.5l13.7-3.7l93.2-19.8l0.4-0.1l0.8,3.1l-0.4,0.1l-95,30.8l-9.2,2.5l-53.4,9.5
			c0.5,2.1,0.8,4.4,0.8,6.6l54.2-4.7h14.3l94.8,4.9L586.8,341.2z"/>
	</g>
</g>
<g id="Taiwan">
	<rect y="1" class="st7" width="768" height="683"/>
	<g>
		<polygon class="st4" points="384,130.6 354,224.6 414,224.6 		"/>
		<polygon class="st4" points="278.5,159.9 299.5,256.3 351.5,226.3 		"/>
		<polygon class="st4" points="200.3,237.6 266.7,310.6 296.7,258.6 		"/>
		<polygon class="st4" points="172,343.7 266,373.7 266,313.7 		"/>
		<polygon class="st4" points="201.3,449.2 297.7,428.2 267.7,376.2 		"/>
		<polygon class="st4" points="279,527.4 352,461 300,431 		"/>
		<polygon class="st4" points="384,554.4 414,460.4 354,460.4 		"/>
		<polygon class="st4" points="489.5,526.1 468.5,429.7 416.5,459.7 		"/>
		<polygon class="st4" points="567.7,449.4 501.3,376.4 471.3,428.4 		"/>
		<polygon class="st4" points="596,343.3 502,313.3 502,373.3 		"/>
		<polygon class="st4" points="567.7,237.8 471.3,258.8 501.3,310.8 		"/>
		<polygon class="st4" points="490,159.6 417,226 469,256 		"/>
		<ellipse class="st7" cx="384" cy="343.6" rx="121.5" ry="122.5"/>
		<circle class="st4" cx="384" cy="343.6" r="106"/>
	</g>
</g>
<g id="Layer_4">
	
		<image style="overflow:visible;opacity:0.75;" width="386" height="166" xlink:href="123765C5.png"  transform="matrix(1 0 0 1 177 616)">
	</image>
	<g>
		<g>
			<text transform="matrix(1.1 0 0 1 23.2449 723.2348)" class="st8 st9 st10">India-Pakistan</text>
			<text transform="matrix(1.1 0 0 1 199.1482 723.2348)" class="st4 st9 st10">Taiwan</text>
		</g>
	</g>
</g>
<g id="Layer_5">
</g>
</svg>
